<svg width="32" height="32" viewBox="0 0 32 32" fill="none" xmlns="http://www.w3.org/2000/svg">
<path fill-rule="evenodd" clip-rule="evenodd" d="M10.0272 5.52788C11.0561 5.44577 12.0329 5.04118 12.8185 4.37169C14.6518 2.80937 17.3482 2.80937 19.1815 4.37169C19.9671 5.04118 20.9439 5.44577 21.9728 5.52788C24.3738 5.71949 26.2805 7.62612 26.4721 10.0272C26.5542 11.0561 26.9588 12.0329 27.6283 12.8185C29.1906 14.6518 29.1906 17.3481 27.6283 19.1814C26.9588 19.967 26.5542 20.9438 26.4721 21.9727C26.2805 24.3738 24.3738 26.2804 21.9728 26.472C20.9439 26.5541 19.9671 26.9587 19.1815 27.6282C17.3482 29.1905 14.6518 29.1905 12.8185 27.6282C12.0329 26.9587 11.0561 26.5541 10.0272 26.472C7.62617 26.2804 5.71953 24.3738 5.52793 21.9727C5.44582 20.9438 5.04122 19.967 4.37173 19.1814C2.80942 17.3481 2.80942 14.6518 4.37173 12.8185C5.04122 12.0329 5.44582 11.0561 5.52793 10.0272C5.71953 7.62612 7.62617 5.71949 10.0272 5.52788ZM21.9314 13.9313C22.5562 13.3065 22.5562 12.2934 21.9314 11.6686C21.3065 11.0437 20.2935 11.0437 19.6686 11.6686L14.4 16.9372L12.3314 14.8686C11.7065 14.2437 10.6935 14.2437 10.0686 14.8686C9.44379 15.4934 9.44379 16.5065 10.0686 17.1313L13.2686 20.3313C13.8935 20.9562 14.9065 20.9562 15.5314 20.3313L21.9314 13.9313Z" fill="#D44A78"/>
</svg>
