<svg width="16" height="16" viewBox="0 0 16 16" fill="none" xmlns="http://www.w3.org/2000/svg">
<path fill-rule="evenodd" clip-rule="evenodd" d="M3.43427 3.43433C3.74669 3.12191 4.25322 3.12191 4.56564 3.43433L7.99995 6.86864L11.4343 3.43433C11.7467 3.12191 12.2532 3.12191 12.5656 3.43433C12.8781 3.74675 12.8781 4.25328 12.5656 4.5657L9.13132 8.00001L12.5656 11.4343C12.8781 11.7467 12.8781 12.2533 12.5656 12.5657C12.2532 12.8781 11.7467 12.8781 11.4343 12.5657L7.99995 9.13138L4.56564 12.5657C4.25322 12.8781 3.74669 12.8781 3.43427 12.5657C3.12185 12.2533 3.12185 11.7467 3.43427 11.4343L6.86858 8.00001L3.43427 4.5657C3.12185 4.25328 3.12185 3.74675 3.43427 3.43433Z" fill="white"/>
</svg>
