<svg width="20" height="20" viewBox="0 0 20 20" fill="none" xmlns="http://www.w3.org/2000/svg">
<g clip-path="url(#clip0_1232_178)">
<path d="M10.0002 1.25C4.47671 1.25 0.000151101 4.88672 0.000151101 9.375C0.000151101 11.2344 0.777495 12.9375 2.06656 14.3086C1.48453 15.8477 0.273589 17.1523 0.254057 17.168C-0.00375515 17.4414 -0.0740676 17.8398 0.0743698 18.1836C0.222807 18.5273 0.562651 18.75 0.937651 18.75C3.33999 18.75 5.23453 17.7461 6.37125 16.9414C7.50015 17.2969 8.7189 17.5 10.0002 17.5C15.5236 17.5 20.0002 13.8633 20.0002 9.375C20.0002 4.88672 15.5236 1.25 10.0002 1.25ZM10.0002 15.625C8.95718 15.625 7.92593 15.4648 6.93765 15.1523L6.05093 14.8711L5.28921 15.4102C4.73062 15.8047 3.96499 16.2461 3.04312 16.543C3.32828 16.0703 3.60562 15.5391 3.82046 14.9727L4.23453 13.875L3.42984 13.0234C2.72281 12.2695 1.87515 11.0234 1.87515 9.375C1.87515 5.92969 5.51968 3.125 10.0002 3.125C14.4806 3.125 18.1252 5.92969 18.1252 9.375C18.1252 12.8203 14.4806 15.625 10.0002 15.625Z" fill="#0F1419"/>
</g>
<defs>
<clipPath id="clip0_1232_178">
<rect width="20" height="20" fill="white"/>
</clipPath>
</defs>
</svg>
