<svg width="23" height="20" viewBox="0 0 23 20" fill="none" xmlns="http://www.w3.org/2000/svg">
<path d="M16.2148 13.4735L17.4648 12.2235C17.6602 12.0282 18 12.1649 18 12.4462V18.1259C18 19.161 17.1602 20.0009 16.125 20.0009H2.375C1.33984 20.0009 0.5 19.161 0.5 18.1259V4.37585C0.5 3.3407 1.33984 2.50085 2.375 2.50085H13.0586C13.3359 2.50085 13.4766 2.83679 13.2812 3.03601L12.0312 4.28601C11.9727 4.3446 11.8945 4.37585 11.8086 4.37585H2.375V18.1259H16.125V13.6923C16.125 13.6102 16.1562 13.5321 16.2148 13.4735ZM22.332 5.5907L12.0742 15.8485L8.54297 16.2391C7.51953 16.3524 6.64844 15.4891 6.76172 14.4579L7.15234 10.9266L17.4102 0.668823C18.3047 -0.225708 19.75 -0.225708 20.6406 0.668823L22.3281 2.35632C23.2227 3.25085 23.2227 4.70007 22.332 5.5907ZM18.4727 6.79773L16.2031 4.5282L8.94531 11.7899L8.66016 14.3407L11.2109 14.0555L18.4727 6.79773ZM21.0039 3.68445L19.3164 1.99695C19.1562 1.83679 18.8945 1.83679 18.7383 1.99695L17.5312 3.20398L19.8008 5.47351L21.0078 4.26648C21.1641 4.10242 21.1641 3.8446 21.0039 3.68445Z" fill="#0F1419"/>
</svg>
