<svg width="16" height="16" viewBox="0 0 16 16" fill="none" xmlns="http://www.w3.org/2000/svg">
<path d="M2.66667 2H13.3333C13.5101 2 13.6797 2.07024 13.8047 2.19526C13.9298 2.32029 14 2.48986 14 2.66667V13.3333C14 13.5101 13.9298 13.6797 13.8047 13.8047C13.6797 13.9298 13.5101 14 13.3333 14H2.66667C2.48986 14 2.32029 13.9298 2.19526 13.8047C2.07024 13.6797 2 13.5101 2 13.3333V2.66667C2 2.48986 2.07024 2.32029 2.19526 2.19526C2.32029 2.07024 2.48986 2 2.66667 2ZM3.33333 3.33333V12.6667H12.6667V3.33333H3.33333ZM5 6C4.73478 6 4.48043 5.89464 4.29289 5.70711C4.10536 5.51957 4 5.26522 4 5C4 4.73478 4.10536 4.48043 4.29289 4.29289C4.48043 4.10536 4.73478 4 5 4C5.26522 4 5.51957 4.10536 5.70711 4.29289C5.89464 4.48043 6 4.73478 6 5C6 5.26522 5.89464 5.51957 5.70711 5.70711C5.51957 5.89464 5.26522 6 5 6ZM4.33333 6.66667H5.66667V11.6667H4.33333V6.66667ZM8 6.95333C8.38933 6.57667 8.844 6.33333 9.33333 6.33333C10.714 6.33333 11.6667 7.45267 11.6667 8.83333V11.6667H10.3333V8.83333C10.3333 8.52391 10.2104 8.22717 9.99162 8.00838C9.77283 7.78958 9.47609 7.66667 9.16667 7.66667C8.85725 7.66667 8.5605 7.78958 8.34171 8.00838C8.12292 8.22717 8 8.52391 8 8.83333V11.6667H6.66667V6.66667H8V6.95333Z" fill="#303036"/>
</svg>
